<svg xmlns="http://www.w3.org/2000/svg" xmlns:xlink="http://www.w3.org/1999/xlink" width="512" zoomAndPan="magnify" viewBox="0 0 384 383.999986" height="512" preserveAspectRatio="xMidYMid meet" version="1.2"><defs><clipPath id="bc1429c939"><path d="M 192 0 C 85.960938 0 0 85.960938 0 192 C 0 298.039062 85.960938 384 192 384 C 298.039062 384 384 298.039062 384 192 C 384 85.960938 298.039062 0 192 0 Z M 192 0 "/></clipPath><clipPath id="8d37805d27"><path d="M 192 0 C 85.960938 0 0 85.960938 0 192 C 0 298.039062 85.960938 384 192 384 C 298.039062 384 384 298.039062 384 192 C 384 85.960938 298.039062 0 192 0 Z M 192 0 "/></clipPath><clipPath id="c29df89581"><rect x="0" width="384" y="0" height="384"/></clipPath><clipPath id="1c835e0ad6"><path d="M 192 0 C 85.960938 0 0 85.960938 0 192 C 0 298.039062 85.960938 384 192 384 C 298.039062 384 384 298.039062 384 192 C 384 85.960938 298.039062 0 192 0 Z M 192 0 "/></clipPath><clipPath id="c9cc12155b"><path d="M 138.828125 138.828125 L 245.171875 138.828125 L 245.171875 245.171875 L 138.828125 245.171875 Z M 138.828125 138.828125 "/></clipPath><clipPath id="47b2cea40b"><path d="M 192 138.828125 C 162.632812 138.828125 138.828125 162.632812 138.828125 192 C 138.828125 221.367188 162.632812 245.171875 192 245.171875 C 221.367188 245.171875 245.171875 221.367188 245.171875 192 C 245.171875 162.632812 221.367188 138.828125 192 138.828125 Z M 192 138.828125 "/></clipPath><clipPath id="b8d1fac124"><path d="M 0.828125 0.828125 L 107.171875 0.828125 L 107.171875 107.171875 L 0.828125 107.171875 Z M 0.828125 0.828125 "/></clipPath><clipPath id="581f0f7c72"><path d="M 54 0.828125 C 24.632812 0.828125 0.828125 24.632812 0.828125 54 C 0.828125 83.367188 24.632812 107.171875 54 107.171875 C 83.367188 107.171875 107.171875 83.367188 107.171875 54 C 107.171875 24.632812 83.367188 0.828125 54 0.828125 Z M 54 0.828125 "/></clipPath><clipPath id="ef2c141a4b"><rect x="0" width="108" y="0" height="108"/></clipPath><clipPath id="9bd64128be"><path d="M 138.828125 138.828125 L 245.164062 138.828125 L 245.164062 245.164062 L 138.828125 245.164062 Z M 138.828125 138.828125 "/></clipPath><clipPath id="24b442571d"><path d="M 191.996094 138.828125 C 162.632812 138.828125 138.828125 162.632812 138.828125 191.996094 C 138.828125 221.359375 162.632812 245.164062 191.996094 245.164062 C 221.359375 245.164062 245.164062 221.359375 245.164062 191.996094 C 245.164062 162.632812 221.359375 138.828125 191.996094 138.828125 Z M 191.996094 138.828125 "/></clipPath></defs><g id="5c6606b683"><g clip-rule="nonzero" clip-path="url(#bc1429c939)"><g><g clip-path="url(#c29df89581)"><g clip-rule="nonzero" clip-path="url(#8d37805d27)"><rect x="0" width="384" height="384" y="0" style="fill:#ffffff;fill-opacity:1;stroke:none;"/></g></g></g><path style="fill:none;stroke-width:48;stroke-linecap:butt;stroke-linejoin:miter;stroke:#000000;stroke-opacity:1;stroke-miterlimit:4;" d="M 256.000011 -0.000000000000113687 C 114.614583 -0.000000000000113687 -0.0000096 114.614592 -0.0000096 256.00002 C -0.0000096 397.385448 114.614583 512.000041 256.000011 512.000041 C 397.385439 512.000041 512.000031 397.385448 512.000031 256.00002 C 512.000031 114.614592 397.385439 -0.000000000000113687 256.000011 -0.000000000000113687 Z M 256.000011 -0.000000000000113687 " transform="matrix(0.75,0,0,0.75,0.0000072,0.000000000000085265)"/></g><path style="fill:none;stroke-width:64;stroke-linecap:butt;stroke-linejoin:miter;stroke:#00bf63;stroke-opacity:1;stroke-miterlimit:4;" d="M 0.0000106667 32.00002 L 235.223988 32.00002 " transform="matrix(0.75,0,0,0.75,191.999992,167.999987)"/><path style="fill:none;stroke-width:64;stroke-linecap:butt;stroke-linejoin:miter;stroke:#ff3131;stroke-opacity:1;stroke-miterlimit:4;" d="M 0.00178815 31.998206 L 262.918476 31.998206 " transform="matrix(0,0.75,-0.75,0,215.994746,6.815065)"/><path style="fill:none;stroke-width:64;stroke-linecap:butt;stroke-linejoin:miter;stroke:#5170ff;stroke-opacity:1;stroke-miterlimit:4;" d="M 0.000430521 31.997869 L 253.914392 32.001552 " transform="matrix(0.53033,-0.53033,0.53033,0.53033,45.428778,304.542516)"/><g clip-rule="nonzero" clip-path="url(#1c835e0ad6)"><path style="fill:none;stroke-width:72;stroke-linecap:butt;stroke-linejoin:miter;stroke:#000000;stroke-opacity:1;stroke-miterlimit:4;" d="M 256.000011 -0.000000000000113687 C 114.614583 -0.000000000000113687 -0.0000096 114.614592 -0.0000096 256.00002 C -0.0000096 397.385448 114.614583 512.000041 256.000011 512.000041 C 397.385439 512.000041 512.000031 397.385448 512.000031 256.00002 C 512.000031 114.614592 397.385439 -0.000000000000113687 256.000011 -0.000000000000113687 Z M 256.000011 -0.000000000000113687 " transform="matrix(0.75,0,0,0.75,0.0000072,0.000000000000085265)"/></g><g clip-rule="nonzero" clip-path="url(#c9cc12155b)"><g clip-rule="nonzero" clip-path="url(#47b2cea40b)"><g transform="matrix(1,0,0,1,138,138)"><g clip-path="url(#ef2c141a4b)"><g clip-rule="nonzero" clip-path="url(#b8d1fac124)"><g clip-rule="nonzero" clip-path="url(#581f0f7c72)"><path style=" stroke:none;fill-rule:nonzero;fill:#ffffff;fill-opacity:1;" d="M 0.828125 0.828125 L 107.171875 0.828125 L 107.171875 107.171875 L 0.828125 107.171875 Z M 0.828125 0.828125 "/></g></g></g></g></g></g><g clip-rule="nonzero" clip-path="url(#9bd64128be)"><g clip-rule="nonzero" clip-path="url(#24b442571d)"><path style="fill:none;stroke-width:64;stroke-linecap:butt;stroke-linejoin:miter;stroke:#000000;stroke-opacity:1;stroke-miterlimit:4;" d="M 70.889724 -0.000897079 C 31.738679 -0.000897079 -0.000906679 31.738689 -0.000906679 70.889734 C -0.000906679 110.040778 31.738679 141.780364 70.889724 141.780364 C 110.040769 141.780364 141.780355 110.040778 141.780355 70.889734 C 141.780355 31.738689 110.040769 -0.000897079 70.889724 -0.000897079 Z M 70.889724 -0.000897079 " transform="matrix(0.75,0,0,0.75,138.828805,138.828798)"/></g></g></g></svg>